<svg width="154" height="121" viewBox="0 0 154 121" fill="none" xmlns="http://www.w3.org/2000/svg">
<path d="M48.9807 7.01708C49.5066 6.99587 50.0928 7.03549 50.6584 7.10201C52.3818 7.30471 53.9249 8.1954 55.1973 9.37534C59.5375 13.4 59.6402 20.2331 55.423 24.3865L41.4388 38.1587L32.5597 47.0765C30.3808 49.2649 28.4461 51.6836 26.7896 54.2899L24.6192 57.7049C22.2129 61.4911 20.796 65.821 20.4986 70.2973C20.205 74.7165 21.0117 79.1395 22.8466 83.1705L23.4209 84.4321C25.1312 88.1895 27.6405 91.5285 30.7738 94.2165C34.0869 97.0588 38.0119 99.0954 42.2381 100.188C45.353 100.994 48.4656 101.81 48.643 101.898C48.8443 101.998 51.002 101.613 53.436 101.13C57.055 100.411 60.5149 99.0588 63.7146 97.2218L64.5166 96.7613C66.6082 95.5605 68.5399 94.1004 70.2659 92.4159L84.03 78.9818C87.907 75.1978 87.9372 68.973 84.0972 65.1516C80.3039 61.3767 74.1715 61.3829 70.3859 65.1654L55.8418 79.6977C52.3047 83.2319 46.5692 83.2198 43.047 79.6708L42.5258 79.1457C41.1806 77.7903 40.4257 75.958 40.4257 74.0483C40.4257 72.7629 40.6825 71.4904 41.1811 70.3057L42.5 67.1719L43.7622 64.7253C57.8485 37.4217 96.7404 37.0005 111.415 63.9927L112.552 66.0838C112.945 66.8076 113.269 67.5668 113.52 68.3515L113.769 69.131C114.389 71.0681 114.425 73.1444 113.874 75.1021C113.395 76.8068 112.487 78.3604 111.237 79.6151L100.311 90.5841L98.6229 92.2402C95.7744 95.0355 97.0258 99.8666 100.873 100.928C101.322 101.051 101.785 101.114 102.25 101.114H105.406C108.074 101.114 110.73 100.739 113.294 100L113.706 99.8817L115.489 99.1718C117.883 98.2184 120.152 96.9739 122.242 95.4663C124.567 93.7895 126.624 91.7688 128.342 89.4735L129.69 87.6715C129.69 87.6715 132.742 82.86 133.517 79.382C134.062 76.9418 133.968 72.9969 133.968 72.9969L133.899 71.2102C133.795 68.5292 133.345 65.8729 132.561 63.3072C131.775 60.7369 130.778 58.2226 129.298 55.9792C128.588 54.9034 127.775 53.7818 126.989 52.9453C120.46 46.0001 108.866 34.9101 108.866 34.9101L98.3512 24.4467C93.8195 19.9369 92.2118 11.8424 98.0592 9.2575C99.7755 8.49883 102.038 7.12531 103.913 7.0171C106.255 6.88193 107.897 7.5683 110.104 8.36132C111.117 8.72543 125.075 23.0359 125.075 23.0359L137.007 35.0221C139.258 37.3372 141.515 39.1169 143.873 42.1914C145.886 44.8158 146.913 47.0456 148.376 49.3607C150.719 53.067 152.541 59.7785 152.541 59.7785C152.541 59.7785 153.519 64.3937 153.779 67.3959C154.082 70.8826 154.065 72.8694 153.779 76.3575C153.508 79.6692 153.267 81.5427 152.428 84.759C151.667 87.6787 151.075 89.286 149.839 92.0403C148.508 95.0085 147.625 96.6345 145.787 99.3216C144.064 101.841 142.914 103.134 140.834 105.371C138.616 107.755 137.321 109.073 134.756 111.084C131.622 113.54 126.088 116.461 126.088 116.461C126.088 116.461 120.926 118.772 117.421 119.597C114.698 120.238 113.116 120.36 110.329 120.605C105.731 121.011 103.095 121.128 98.5095 120.605C96.2047 120.343 92.6561 119.597 92.6561 119.597C92.6561 119.597 87.6796 118.152 84.6639 116.797C79.7065 114.569 74.0588 114.505 69.1415 116.82C68.9073 116.931 68.6777 117.035 68.4545 117.133C65.6414 118.362 61.0252 119.709 61.0252 119.709C61.0252 119.709 57.1393 120.568 54.6089 120.829C50.8923 121.213 45.0409 120.829 45.0409 120.829L40.088 120.157L34.0094 118.701C34.0094 118.701 30.8045 117.587 28.8314 116.685C26.1312 115.45 22.1901 112.988 22.1901 112.988C22.1901 112.988 17.9489 110.073 15.5487 107.835C13.505 105.93 12.4587 104.746 10.7084 102.57C9.19119 100.685 8.38112 99.5849 7.10627 97.5293C5.1547 94.3825 2.94134 89.0158 2.94134 89.0158C2.94134 89.0158 0.774195 82.9045 0.239766 78.822C-0.299708 74.7009 0.239766 68.18 0.239766 68.18C0.239766 68.18 0.397636 65.2992 0.678486 63.4752C1.19564 60.1166 1.75723 58.2579 2.94136 55.071C5.10622 49.2445 7.10627 46.9882 10.9335 41.2952C21.1659 26.0748 32.0812 19.2102 44.2529 8.13728C45.488 7.01369 47.1908 7.08926 48.9807 7.01708Z" fill="#FCFCFC"/>
</svg>
